<svg width="101" height="101" viewBox="0 0 101 101" fill="none" xmlns="http://www.w3.org/2000/svg">
    <g clip-path="url(#clip0_74_27840)">
    <path d="M50.1957 0.736816C40.3066 0.736816 30.6397 3.66926 22.4172 9.16334C14.1947 14.6574 7.78611 22.4663 4.00172 31.6026C0.217343 40.7389 -0.772824 50.7923 1.15644 60.4913C3.0857 70.1904 7.84774 79.0995 14.8404 86.0922C21.833 93.0848 30.7421 97.8468 40.4412 99.7761C50.1402 101.705 60.1936 100.715 69.3299 96.9308C78.4662 93.1464 86.2751 86.7378 91.7692 78.5153C97.2633 70.2929 100.196 60.6259 100.196 50.7368C100.196 37.476 94.9279 24.7583 85.551 15.3815C76.1742 6.00466 63.4565 0.736816 50.1957 0.736816Z" fill="#797979"/>
    <path fill-rule="evenodd" clip-rule="evenodd" d="M64.5528 25.4083C64.531 25.7031 64.531 25.9992 64.5528 26.294C64.5781 27.3477 64.9136 28.3705 65.5174 29.2344C66.1213 30.0983 66.9665 30.7649 67.9473 31.1507C68.9282 31.5366 70.001 31.6245 71.0316 31.4035C72.0622 31.1825 73.0047 30.6624 73.7411 29.9083C74.4775 29.1542 74.9751 28.1997 75.1716 27.1642C75.3681 26.1286 75.2547 25.0582 74.8458 24.0867C74.4368 23.1153 73.7504 22.2861 72.8724 21.703C71.9944 21.1198 70.9639 20.8086 69.9099 20.8083C68.6377 20.8066 67.4086 21.2688 66.4528 22.1083L52.467 18.594L47.4385 39.1797C41.2859 39.5223 35.3351 41.4944 30.1956 44.894C28.8675 43.5692 27.0715 42.82 25.1956 42.8083C24.2463 42.8195 23.3085 43.0175 22.4358 43.3912C21.5631 43.7648 20.7725 44.3067 20.1092 44.9859C19.4459 45.6651 18.9229 46.4684 18.5701 47.3497C18.2172 48.2311 18.0414 49.1733 18.0528 50.1226C18.047 51.4447 18.3984 52.7439 19.0697 53.883C19.7411 55.022 20.7075 55.9586 21.867 56.594C21.7104 57.4519 21.6291 58.3219 21.6242 59.194C21.6242 70.3083 34.4813 79.3083 50.1956 79.3083C65.9099 79.3083 78.767 70.3083 78.767 59.194C78.7655 58.3028 78.6842 57.4136 78.5242 56.5369C79.6837 55.9015 80.6502 54.9649 81.3215 53.8258C81.9929 52.6868 82.3442 51.3876 82.3385 50.0654C82.3498 49.1161 82.174 48.1739 81.8212 47.2926C81.4683 46.4112 80.9453 45.608 80.282 44.9288C79.6187 44.2496 78.8282 43.7077 77.9554 43.334C77.0827 42.9604 76.1449 42.7623 75.1956 42.7511C73.3197 42.7628 71.5237 43.512 70.1956 44.8369C64.5277 41.1332 57.9092 39.1486 51.1385 39.1226L55.067 23.0226L64.5528 25.4083ZM37.6956 61.0226C38.7857 61.0481 39.8587 60.7482 40.7775 60.1612C41.6964 59.5742 42.4195 58.7266 42.8545 57.7268C43.2895 56.7269 43.4166 55.6201 43.2197 54.5476C43.0228 53.4752 42.5107 52.4857 41.7489 51.7056C40.9871 50.9255 40.0101 50.3902 38.9426 50.1679C37.8751 49.9456 36.7656 50.0464 35.7557 50.4576C34.7458 50.8687 33.8813 51.5715 33.2727 52.4762C32.664 53.3809 32.3388 54.4465 32.3385 55.5369C32.3232 56.9742 32.8786 58.3589 33.8829 59.3873C34.8872 60.4156 36.2583 61.0037 37.6956 61.0226ZM62.6956 61.0226C63.7857 61.0481 64.8587 60.7482 65.7775 60.1612C66.6964 59.5742 67.4195 58.7266 67.8545 57.7268C68.2895 56.7269 68.4166 55.6201 68.2197 54.5476C68.0228 53.4752 67.5107 52.4857 66.7489 51.7056C65.9871 50.9255 65.0101 50.3902 63.9426 50.1679C62.8751 49.9456 61.7656 50.0464 60.7557 50.4576C59.7458 50.8687 58.8813 51.5715 58.2727 52.4762C57.664 53.3809 57.3388 54.4465 57.3385 55.5369C57.3232 56.9742 57.8786 58.3589 58.8829 59.3873C59.8872 60.4156 61.2583 61.0037 62.6956 61.0226ZM38.6813 66.8226C38.4873 66.6897 38.2687 66.5971 38.0382 66.5503C37.8078 66.5034 37.5704 66.5033 37.3399 66.55C37.1094 66.5966 36.8907 66.689 36.6966 66.8217C36.5025 66.9544 36.337 67.1247 36.2099 67.3226C35.9454 67.728 35.8497 68.2207 35.9431 68.6956C36.0364 69.1706 36.3116 69.5903 36.7099 69.8654C40.7301 72.4576 45.4122 73.8362 50.1956 73.8362C54.9791 73.8362 59.6611 72.4576 63.6813 69.8654C64.0796 69.5903 64.3548 69.1706 64.4482 68.6956C64.5416 68.2207 64.4458 67.728 64.1813 67.3226C64.0543 67.1247 63.8888 66.9544 63.6947 66.8217C63.5006 66.689 63.2818 66.5966 63.0513 66.55C62.8209 66.5033 62.5834 66.5034 62.353 66.5503C62.1226 66.5971 61.9039 66.6897 61.7099 66.8226C58.2912 69.0621 54.2822 70.2309 50.1956 70.1797C47.7648 70.1906 45.3497 69.7897 43.0528 68.994C41.5043 68.4709 40.0337 67.7404 38.6813 66.8226Z" fill="white"/>
    </g>
    <defs>
    <clipPath id="clip0_74_27840">
    <rect width="100" height="100" fill="white" transform="translate(0.195679 0.736816)"/>
    </clipPath>
    </defs>
    </svg>
    