<svg width="81" height="71" viewBox="0 0 81 71" fill="none" xmlns="http://www.w3.org/2000/svg">
    <path
        d="M50.2053 47.9188C50.2053 49.2957 49.09 50.411 47.7131 50.411H32.76C31.3831 50.411 30.2679 49.2957 30.2679 47.9188V40.4423H0.361694V62.8719C0.361694 66.8594 3.85075 70.3484 7.83823 70.3484H72.6349C76.6224 70.3484 80.1115 66.8594 80.1115 62.8719V40.4423H50.2053V47.9188ZM72.6349 15.5205H60.174V8.04392C60.174 4.05643 56.685 0.567383 52.6975 0.567383H27.7757C23.7882 0.567383 20.2991 4.05643 20.2991 8.04392V15.5205H7.83823C3.85075 15.5205 0.361694 19.0095 0.361694 22.997V35.4579H80.1115V22.997C80.1115 19.0095 76.6224 15.5205 72.6349 15.5205ZM50.2053 15.5205H30.2679V10.5361H50.2053V15.5205Z"
        fill="white" />
</svg>
    