<svg width="101" height="101" viewBox="0 0 101 101" fill="none" xmlns="http://www.w3.org/2000/svg">
    <g clip-path="url(#clip0_74_27815)">
    <path d="M50.7368 100.737C78.3511 100.737 100.737 78.3511 100.737 50.7368C100.737 23.1226 78.3511 0.736816 50.7368 0.736816C23.1226 0.736816 0.736847 23.1226 0.736847 50.7368C0.736847 78.3511 23.1226 100.737 50.7368 100.737Z" fill="#575757"/>
    <path fill-rule="evenodd" clip-rule="evenodd" d="M18.1511 72.0226V28.394H38.3226C41.4332 28.394 44.4164 29.6297 46.6159 31.8293C48.8154 34.0288 50.0511 37.012 50.0511 40.1226C50.0511 44.2369 48.7797 46.794 44.1368 49.4083C49.694 51.9369 51.2797 55.4369 51.2797 60.3369C51.2797 66.9512 45.4083 72.0226 38.7797 72.0226H18.1511ZM26.7226 35.6083V46.1083H36.7226C37.3924 46.1063 38.0546 45.9663 38.6678 45.6968C39.281 45.4274 39.8321 45.0344 40.2866 44.5423C40.7411 44.0503 41.0892 43.4698 41.3092 42.8372C41.5293 42.2046 41.6165 41.5333 41.5654 40.8655C41.6164 40.1969 41.5292 39.525 41.3093 38.8916C41.0894 38.2582 40.7415 37.6769 40.2872 37.1837C39.833 36.6906 39.2821 36.2962 38.6688 36.0252C38.0555 35.7542 37.393 35.6123 36.7226 35.6083H26.7226ZM26.7226 64.6369V53.3083H37.4368C39.1797 53.3083 42.794 54.194 42.794 59.5512C42.785 60.2396 42.6382 60.9192 42.3624 61.5499C42.0866 62.1807 41.6872 62.7498 41.188 63.2238C40.6887 63.6978 40.0995 64.067 39.4553 64.3097C38.8111 64.5524 38.1248 64.6637 37.4368 64.6369H26.7226Z" fill="white"/>
    <path fill-rule="evenodd" clip-rule="evenodd" d="M69.494 40.4082C63.3511 40.4082 54.2511 44.8225 54.2511 56.5368C54.2511 63.6796 58.1654 72.8368 69.8797 72.8368C73.1117 72.9263 76.2862 71.9692 78.93 70.108C81.5738 68.2467 83.5454 65.5811 84.5511 62.5082H75.7368C75.294 64.0796 73.5654 65.8082 69.8797 65.8082C67.9965 65.7992 66.1837 65.0913 64.7927 63.8217C63.4017 62.5521 62.5316 60.8114 62.3511 58.9368H84.5511V56.5368C84.5511 44.8225 75.6226 40.4082 69.494 40.4082ZM69.494 47.1082C67.7522 47.093 66.0648 47.7147 64.7493 48.8566C63.4339 49.9984 62.581 51.5815 62.3511 53.3082H75.7368C75.7672 52.4822 75.6262 51.6588 75.3226 50.89C75.0191 50.1212 74.5596 49.4236 73.9731 48.8411C73.3866 48.2587 72.6859 47.804 71.915 47.5057C71.1441 47.2075 70.3198 47.0721 69.494 47.1082Z" fill="white"/>
    <path d="M58.8226 30.8655V36.2798H79.8654V30.8655H58.8226Z" fill="white"/>
    </g>
    <defs>
    <clipPath id="clip0_74_27815">
    <rect width="100" height="100" fill="white" transform="translate(0.736847 0.736816)"/>
    </clipPath>
    </defs>
    </svg>
    