<svg width="101" height="101" viewBox="0 0 101 101" fill="none" xmlns="http://www.w3.org/2000/svg">
    <g clip-path="url(#clip0_74_27820)">
    <path d="M50.1346 0.736816C59.5144 0.861127 68.6801 3.5578 76.6328 8.53292C84.5854 13.508 91.0198 20.5707 95.2346 28.9511H47.6346C47.6346 28.9511 38.6489 28.6511 30.9632 39.5225C28.7632 44.0797 26.3918 48.7654 29.0489 58.094C25.2203 51.5654 8.72034 22.9225 8.72034 22.9225C8.72034 22.9225 20.3632 1.90824 50.1346 0.736816Z" fill="#737373"/>
    <path d="M93.7061 75.6796C93.7061 75.6796 80.1061 101.78 46.6489 100.494L70.4632 59.4082C70.4632 59.4082 75.2061 51.8082 69.6061 39.7511C66.7489 35.5654 63.8918 31.1797 54.4775 28.8511C62.0061 28.7797 95.1489 28.8511 95.1489 28.8511C95.1489 28.8511 107.563 49.4082 93.7061 75.6796Z" fill="#CCCCCC"/>
    <path d="M6.7775 75.8939C6.7775 75.8939 -9.10821 51.1082 8.74893 22.8796C12.8632 30.0225 32.5346 63.9511 32.5346 63.9511C32.5346 63.9511 36.8204 71.8653 50.0489 73.0511C55.1061 72.6796 60.3775 72.3653 67.0918 65.4511C63.3918 71.9939 46.7632 100.551 46.7632 100.551C46.7632 100.551 22.6775 100.98 6.76322 75.8939H6.7775Z" fill="#969696"/>
    <path d="M46.6345 100.737L53.3345 72.8939C58.5647 72.1252 63.3557 69.5349 66.8631 65.5796C63.0345 72.2939 46.6345 100.737 46.6345 100.737Z" fill="#8C8C8C"/>
    <path d="M27.706 51.0511C27.689 46.6336 28.9836 42.3104 31.4259 38.6292C33.8681 34.9481 37.348 32.0747 41.4247 30.373C45.5014 28.6714 49.9915 28.2181 54.326 29.0705C58.6606 29.923 62.6446 32.0428 65.7733 35.1615C68.9021 38.2802 71.0347 42.2574 71.9011 46.5893C72.7674 50.9211 72.3285 55.4126 70.6399 59.4947C68.9514 63.5769 66.0892 67.066 62.4159 69.52C58.7426 71.974 54.4236 73.2825 50.006 73.2797C44.1017 73.2873 38.436 70.9501 34.2544 66.7818C30.0727 62.6136 27.7173 56.9554 27.706 51.0511Z" fill="white"/>
    <path d="M31.4346 51.0512C31.4346 47.3781 32.5238 43.7875 34.5644 40.7334C36.6051 37.6794 39.5055 35.299 42.899 33.8934C46.2925 32.4878 50.0266 32.12 53.6291 32.8366C57.2316 33.5532 60.5407 35.3219 63.138 37.9192C65.7352 40.5165 67.504 43.8256 68.2206 47.4281C68.9372 51.0306 68.5694 54.7647 67.1638 58.1582C65.7581 61.5516 63.3778 64.4521 60.3237 66.4928C57.2697 68.5334 53.6791 69.6226 50.006 69.6226C45.0805 69.6226 40.3568 67.666 36.874 64.1832C33.3912 60.7003 31.4346 55.9766 31.4346 51.0512Z" fill="url(#paint0_linear_74_27820)"/>
    <path d="M95.1346 28.8655L67.5631 36.9226C64.2867 32.7722 59.6452 29.9175 54.4631 28.8655C62.2203 28.8655 95.1346 28.8655 95.1346 28.8655Z" fill="#BEBEBE"/>
    <path d="M28.5203 57.0083C24.6489 50.3226 8.72034 22.9226 8.72034 22.9226L29.1346 43.0512C27.7768 46.3537 27.328 49.9594 27.8346 53.494L28.5203 57.0083Z" fill="#6B6B6B"/>
    </g>
    <defs>
    <linearGradient id="paint0_linear_74_27820" x1="50.006" y1="32.794" x2="50.006" y2="68.4369" gradientUnits="userSpaceOnUse">
    <stop stop-color="#B0B0B0"/>
    <stop offset="1" stop-color="#5D5D5D"/>
    </linearGradient>
    <clipPath id="clip0_74_27820">
    <rect width="100" height="100" fill="white" transform="translate(0.263184 0.736816)"/>
    </clipPath>
    </defs>
    </svg>
    