<svg width="73" height="73" viewBox="0 0 73 73" fill="none" xmlns="http://www.w3.org/2000/svg">
    <path
        d="M36.4312 0.5C16.5716 0.5 0.473145 16.5985 0.473145 36.4581C0.473145 56.3177 16.5716 72.4161 36.4312 72.4161C56.2908 72.4161 72.3893 56.3177 72.3893 36.4581C72.3893 16.5985 56.2908 0.5 36.4312 0.5ZM48.3626 52.3492C47.7972 52.9118 47.2041 53.5019 46.7228 53.9847C46.2892 54.4197 45.9833 54.9562 45.8282 55.5376C45.6092 56.3582 45.4323 57.1876 45.1365 57.9836L42.6151 64.7765C40.62 65.2115 38.5554 65.4565 36.4312 65.4565V61.4866C36.6763 59.6568 35.3235 56.2292 33.15 54.0558C32.2801 53.1858 31.7915 52.0056 31.7915 50.7746V46.1334C31.7915 44.4457 30.8824 42.8943 29.4049 42.078C27.3214 40.9253 24.3577 39.3144 22.3278 38.2922C20.6633 37.4542 19.1235 36.387 17.7388 35.1386L17.6228 35.0342C16.6326 34.1404 15.7535 33.1308 15.0043 32.0271C13.6442 30.0306 11.4288 26.7465 9.98898 24.6122C12.957 18.0151 18.3057 12.717 24.9522 9.83895L28.4334 11.5803C29.9762 12.3517 31.7915 11.2309 31.7915 9.50547V7.86705C32.95 7.68001 34.1287 7.56112 35.3278 7.51617L39.4311 11.6195C40.3373 12.5257 40.3373 13.9944 39.4311 14.9006L38.7511 15.5792L37.2519 17.0784C36.7995 17.5308 36.7995 18.2659 37.2519 18.7183L37.9319 19.3983C38.3843 19.8507 38.3843 20.5858 37.9319 21.0381L36.7719 22.1981C36.5542 22.4155 36.259 22.5375 35.9513 22.5374H34.6478C34.3462 22.5374 34.0562 22.6548 33.8388 22.8665L32.4004 24.2657C32.2241 24.4374 32.1069 24.6606 32.0657 24.9033C32.0246 25.1459 32.0615 25.3953 32.1713 25.6156L34.4318 30.1379C34.8175 30.9092 34.2563 31.8169 33.3951 31.8169H32.5773C32.2975 31.8169 32.0278 31.7154 31.8176 31.5327L30.472 30.364C30.1675 30.0999 29.7996 29.9196 29.4042 29.8407C29.0089 29.7619 28.5999 29.7874 28.2174 29.9146L23.698 31.421C23.353 31.5361 23.0529 31.7568 22.8403 32.0519C22.6277 32.347 22.5133 32.7015 22.5134 33.0653C22.5134 33.7221 22.8846 34.3209 23.4718 34.6152L25.0783 35.4185C26.4427 36.1014 27.9477 36.4566 29.473 36.4566C30.9984 36.4566 32.7484 40.4135 34.1128 41.0964H43.791C45.022 41.0964 46.2008 41.585 47.0722 42.4549L49.0571 44.4399C49.8864 45.2694 50.3521 46.3944 50.3519 47.5674C50.3516 48.4562 50.1757 49.3361 49.8343 50.1568C49.493 50.9774 48.9928 51.7225 48.3626 52.3492ZM60.9349 39.1042C60.0954 38.8939 59.3632 38.3792 58.8833 37.6586L56.2763 33.7482C55.8948 33.1768 55.6913 32.5053 55.6913 31.8183C55.6913 31.1314 55.8948 30.4598 56.2763 29.8885L59.1167 25.6286C59.4531 25.1255 59.9142 24.7166 60.4564 24.4469L62.3384 23.5059C64.2987 27.4091 65.4297 31.7995 65.4297 36.4581C65.4297 37.7152 65.3224 38.9461 65.1658 40.1612L60.9349 39.1042Z"
        fill="#FFFDFD" />
</svg>
    