<svg width="54" height="72" viewBox="0 0 54 72" fill="none" xmlns="http://www.w3.org/2000/svg">
    <path
        d="M14.2186 51.2446C13.0136 50.0396 13.6417 50.3793 10.7352 49.6014C9.41651 49.2478 8.25724 48.5683 7.20891 47.7543L0.91753 63.1798C0.308777 64.6733 1.44586 66.2957 3.05718 66.2347L10.3636 65.9559L15.3889 71.2642C16.4983 72.4345 18.4452 72.0698 19.0539 70.5764L26.2716 52.8795C24.7685 53.7171 23.1003 54.208 21.3753 54.208C18.6712 54.208 16.1308 53.1555 14.2186 51.2446ZM53.8333 63.1798L47.5419 47.7543C46.4936 48.5697 45.3344 49.2478 44.0156 49.6014C41.0939 50.3835 41.7345 50.0424 40.5323 51.2446C38.62 53.1555 36.0782 54.208 33.3742 54.208C31.6492 54.208 29.981 53.7157 28.4778 52.8795L35.6955 70.5764C36.3043 72.0698 38.2526 72.4345 39.3605 71.2642L44.3872 65.9559L51.6937 66.2347C53.305 66.2957 54.4421 64.6719 53.8333 63.1798ZM37.2209 48.1066C39.3397 45.9503 39.5824 46.1361 42.5998 45.3138C44.5259 44.7882 46.0319 43.256 46.5477 41.2952C47.5849 37.357 47.3159 37.8326 50.1461 34.9511C51.5564 33.5159 52.1069 31.4234 51.5911 29.4626C50.5552 25.5272 50.5538 26.0763 51.5911 22.1368C52.1069 20.176 51.5564 18.0835 50.1461 16.6483C47.3159 13.7668 47.5849 14.241 46.5477 10.3042C46.0319 8.34345 44.5259 6.81117 42.5998 6.28562C38.7337 5.23035 39.1997 5.5063 36.3667 2.62339C34.9564 1.18817 32.9 0.626566 30.9739 1.15212C27.1092 2.206 27.6486 2.20738 23.777 1.15212C21.8509 0.626566 19.7944 1.18679 18.3842 2.62339C15.554 5.50491 16.0199 5.23035 12.1524 6.28562C10.2263 6.81117 8.72039 8.34345 8.20455 10.3042C7.16869 14.241 7.43632 13.7668 4.60611 16.6483C3.19585 18.0835 2.64395 20.176 3.16118 22.1368C4.19703 26.0694 4.19842 25.5203 3.16118 29.4612C2.64534 31.422 3.19585 33.5145 4.60611 34.9511C7.43632 37.8326 7.16731 37.357 8.20455 41.2952C8.72039 43.256 10.2263 44.7882 12.1524 45.3138C15.2558 46.1597 15.4874 46.0265 17.53 48.1066C19.3646 49.9744 22.2225 50.3086 24.4273 48.9136C25.309 48.3539 26.3318 48.0567 27.3761 48.0567C28.4205 48.0567 29.4432 48.3539 30.3249 48.9136C32.5283 50.3086 35.3863 49.9744 37.2209 48.1066ZM14.2935 25.3594C14.2935 18.0059 20.1508 12.0445 27.3754 12.0445C34.6 12.0445 40.4574 18.0059 40.4574 25.3594C40.4574 32.713 34.6 38.6744 27.3754 38.6744C20.1508 38.6744 14.2935 32.713 14.2935 25.3594Z"
        fill="white" />
</svg>
    