<svg width="115" height="101" viewBox="0 0 115 101" fill="none" xmlns="http://www.w3.org/2000/svg">
    <g clip-path="url(#clip0_74_27843)">
    <path d="M68.1805 43.251C68.1805 42.3948 68.5206 41.5736 69.1261 40.9681C69.7316 40.3626 70.5528 40.0225 71.409 40.0225H111.409C112.26 40.03 113.074 40.3735 113.674 40.9781C114.273 41.5828 114.609 42.3997 114.609 43.251V66.8082C114.605 72.9638 112.158 78.8663 107.806 83.219C103.453 87.5717 97.5504 90.0187 91.3948 90.0225C85.2391 90.0187 79.3367 87.5717 74.984 83.219C70.6313 78.8663 68.1843 72.9638 68.1805 66.8082V43.251Z" fill="url(#paint0_linear_74_27843)"/>
    <path d="M32.4662 37.2511C32.4662 36.0917 32.9268 34.9798 33.7466 34.16C34.5664 33.3402 35.6783 32.8796 36.8377 32.8796H85.2377C85.8117 32.8796 86.3802 32.9927 86.9105 33.2124C87.4409 33.4321 87.9228 33.7541 88.3287 34.16C88.7347 34.5659 89.0567 35.0478 89.2763 35.5782C89.496 36.1086 89.6091 36.677 89.6091 37.2511V72.1654C89.6091 79.743 86.5989 87.0102 81.2407 92.3684C75.8825 97.7266 68.6153 100.737 61.0377 100.737C53.4601 100.737 46.1928 97.7266 40.8346 92.3684C35.4764 87.0102 32.4662 79.743 32.4662 72.1654V37.2511Z" fill="url(#paint1_linear_74_27843)"/>
    <path d="M96.7519 32.8797C102.669 32.8797 107.466 28.0828 107.466 22.1655C107.466 16.2481 102.669 11.4512 96.7519 11.4512C90.8346 11.4512 86.0377 16.2481 86.0377 22.1655C86.0377 28.0828 90.8346 32.8797 96.7519 32.8797Z" fill="#494949"/>
    <path d="M96.7519 32.8797C102.669 32.8797 107.466 28.0828 107.466 22.1655C107.466 16.2481 102.669 11.4512 96.7519 11.4512C90.8346 11.4512 86.0377 16.2481 86.0377 22.1655C86.0377 28.0828 90.8346 32.8797 96.7519 32.8797Z" fill="url(#paint2_linear_74_27843)"/>
    <path d="M64.6091 29.3082C72.4989 29.3082 78.8948 22.9123 78.8948 15.0225C78.8948 7.13275 72.4989 0.736816 64.6091 0.736816C56.7193 0.736816 50.3234 7.13275 50.3234 15.0225C50.3234 22.9123 56.7193 29.3082 64.6091 29.3082Z" fill="url(#paint3_linear_74_27843)"/>
    <path d="M25.3234 36.4511C25.3234 33.6095 26.4522 30.8843 28.4615 28.875C30.4708 26.8656 33.196 25.7368 36.0376 25.7368H61.0376C63.8793 25.7368 66.6045 26.8656 68.6138 28.875C70.6231 30.8843 71.7519 33.6095 71.7519 36.4511V79.3082C71.7519 80.7153 71.4748 82.1085 70.9364 83.4084C70.3979 84.7083 69.6087 85.8895 68.6138 86.8844C67.6189 87.8793 66.4377 88.6685 65.1378 89.207C63.8379 89.7454 62.4447 90.0225 61.0376 90.0225H25.3234V36.4511Z" fill="black" fill-opacity="0.3"/>
    <path d="M57.4662 18.594H7.46622C3.52133 18.594 0.323364 21.792 0.323364 25.7369V75.7369C0.323364 79.6817 3.52133 82.8797 7.46622 82.8797H57.4662C61.4111 82.8797 64.6091 79.6817 64.6091 75.7369V25.7369C64.6091 21.792 61.4111 18.594 57.4662 18.594Z" fill="url(#paint4_linear_74_27843)"/>
    <path d="M46.7519 32.8796H18.1805V39.4368H28.8948V68.5939H36.0376V39.4368H46.7519V32.8796Z" fill="white"/>
    </g>
    <defs>
    <linearGradient id="paint0_linear_74_27843" x1="66.9805" y1="44.4796" x2="113.98" y2="75.1939" gradientUnits="userSpaceOnUse">
    <stop stop-color="#454545"/>
    <stop offset="1" stop-color="#848484"/>
    </linearGradient>
    <linearGradient id="paint1_linear_74_27843" x1="32.4662" y1="66.8082" x2="89.6091" y2="66.8082" gradientUnits="userSpaceOnUse">
    <stop stop-color="#666666"/>
    <stop offset="1" stop-color="#898989"/>
    </linearGradient>
    <linearGradient id="paint2_linear_74_27843" x1="85.0805" y1="13.9512" x2="105.781" y2="28.5226" gradientUnits="userSpaceOnUse">
    <stop stop-color="#454545"/>
    <stop offset="1" stop-color="#848484"/>
    </linearGradient>
    <linearGradient id="paint3_linear_74_27843" x1="55.2519" y1="4.09396" x2="73.6091" y2="25.5225" gradientUnits="userSpaceOnUse">
    <stop stop-color="#5D5D5D"/>
    <stop offset="1" stop-color="#676767"/>
    </linearGradient>
    <linearGradient id="paint4_linear_74_27843" x1="0.323364" y1="50.7369" x2="64.6091" y2="50.7369" gradientUnits="userSpaceOnUse">
    <stop stop-color="#3C3C3C"/>
    <stop offset="1" stop-color="#5E5E5E"/>
    </linearGradient>
    <clipPath id="clip0_74_27843">
    <rect width="114.286" height="100" fill="white" transform="translate(0.323364 0.736816)"/>
    </clipPath>
    </defs>
    </svg>
    