<svg width="93" height="101" viewBox="0 0 93 101" fill="none" xmlns="http://www.w3.org/2000/svg">
    <g clip-path="url(#clip0_74_27834)">
        <path
            d="M17.4918 65.3522C17.6841 63.2043 18.3684 61.1295 19.4916 59.2887C20.6148 57.4478 22.1467 55.8903 23.9688 54.7368C29.4764 50.8291 36.3534 53.0445 36.3534 53.0445V40.0445C38.0253 40.0033 39.6977 40.1011 41.3534 40.3368V57.0445C41.3534 57.0445 34.4764 54.8599 29.0457 58.7214C25.2149 61.5829 23.1688 64.3676 22.5688 69.3522C22.4495 72.6572 23.4407 75.907 25.3841 78.5829C24.8149 78.2906 24.2149 77.9522 23.6149 77.5829C21.6324 76.2392 20.0282 74.4088 18.956 72.2672C17.8839 70.1256 17.3797 67.7445 17.4918 65.3522ZM69.7995 16.1214C66.852 12.9855 64.8611 9.07317 64.0611 4.84448H68.8303C68.8303 4.84448 67.8765 12.5368 74.7995 20.1368L74.8918 20.2445C73.0141 19.0827 71.2836 17.6983 69.738 16.1214H69.7995ZM92.6764 27.7983V44.1676C89.1195 44.0173 85.5828 43.554 82.1072 42.7829C78.5003 41.9034 75.0281 40.5424 71.7841 38.7368C71.7841 38.7368 68.9995 36.9829 68.7072 36.8599V70.706C68.5965 74.2989 67.8948 77.8489 66.6303 81.2137C65.237 84.5986 63.2754 87.7205 60.8303 90.4445C57.8016 93.6975 54.1342 96.2906 50.0575 98.0615C45.9809 99.8325 41.5827 100.743 37.138 100.737C30.892 100.728 24.7734 98.9696 19.4764 95.6599C17.6767 94.4714 15.9924 93.1168 14.4457 91.6137C19.7456 94.915 25.8632 96.6682 32.1072 96.6753C36.6196 96.6709 41.0823 95.7333 45.2149 93.9214C49.2434 92.0969 52.8639 89.481 55.8611 86.2291C58.3079 83.5064 60.2697 80.3842 61.6611 76.9983C62.9167 73.631 63.6182 70.0824 63.738 66.4906V32.6445C63.9688 32.7676 66.8149 34.5214 66.8149 34.5214C70.0589 36.3271 73.531 37.688 77.138 38.5676C80.6136 39.3386 84.1503 39.8019 87.7072 39.9522V27.3214C89.3292 27.7354 91.0054 27.8963 92.6764 27.7983Z"
            fill="#626262" />
        <path
            d="M87.6765 27.3214V40.1522C84.1204 39.9934 80.5844 39.5302 77.1073 38.7676C73.4994 37.8837 70.0271 36.5175 66.7842 34.706C66.7842 34.706 63.9996 32.9676 63.7073 32.8445V66.6907C63.5951 70.2833 62.8935 73.8332 61.6304 77.1983C60.239 80.5842 58.2772 83.7064 55.8304 86.4291C52.8043 89.7074 49.1305 92.3217 45.0417 94.1066C40.9528 95.8915 36.538 96.8081 32.0765 96.7983C25.8445 96.7521 19.7491 94.9672 14.4765 91.6445C13.5866 90.7982 12.754 89.8936 11.9842 88.9368C9.99847 86.4566 8.39602 83.6925 7.23036 80.7368C5.97724 77.2323 5.34722 73.5355 5.36882 69.8137C5.47383 64.9535 6.78491 60.1956 9.18421 55.9676C11.1383 52.6701 13.647 49.7347 16.5996 47.2907C19.247 45.1524 22.2243 43.4586 25.415 42.2753C28.8952 40.8768 32.6032 40.131 36.3534 40.0753V53.0445C36.3534 53.0445 29.4765 50.8599 24.0457 54.7214C20.1996 57.583 18.1534 60.3676 17.5534 65.3368C17.4195 67.7348 17.9055 70.1269 18.9645 72.2826C20.0234 74.4383 21.6197 76.2849 23.5996 77.6445C24.1996 78.0137 24.7842 78.3522 25.3688 78.6599C26.2656 79.8595 27.3577 80.8996 28.5996 81.7368C30.7027 83.2259 33.1614 84.1338 35.7275 84.3688C38.2937 84.6038 40.8764 84.1576 43.215 83.0753C44.9595 82.3573 46.5328 81.279 47.8319 79.911C49.1309 78.543 50.1265 76.9161 50.7534 75.1368C51.3991 73.0156 51.6596 70.796 51.5227 68.583V4.76758H64.0457C64.8145 9.01682 66.7845 12.9569 69.7227 16.1214C71.2492 17.6944 72.9588 19.0787 74.815 20.2445C76.8517 22.3135 79.2105 24.0385 81.7996 25.3522C83.6779 26.2432 85.6488 26.9243 87.6765 27.383V27.3214Z"
            fill="black" />
        <path
            d="M25.4149 42.2753C22.2252 43.4539 19.248 45.1426 16.5995 47.2753C13.643 49.7232 11.1384 52.6704 9.19948 55.983C6.77839 60.2028 5.46083 64.9651 5.36871 69.8292C5.3508 73.5456 5.98074 77.2367 7.23025 80.7369C8.40671 83.6809 9.99708 86.442 11.9533 88.9369C12.7271 89.8854 13.5595 90.7846 14.4456 91.6292C11.6315 89.7684 9.10694 87.503 6.95333 84.9061C4.99654 82.4311 3.41067 79.6844 2.24564 76.7523C0.982041 73.2288 0.346759 69.5108 0.368714 65.7676C0.469214 60.9068 1.78059 56.1478 4.1841 51.9215C6.13356 48.6118 8.64257 45.6655 11.5995 43.2138C14.235 41.0908 17.1962 39.4075 20.3687 38.2292C22.3535 37.4323 24.4159 36.8445 26.5226 36.4753C29.7379 35.9372 33.0163 35.8906 36.2456 36.3369V40.0446C32.5299 40.1249 28.8599 40.8808 25.4149 42.2753Z"
            fill="#ADADAD" />
        <path
            d="M63.9996 4.76759H51.4765V68.4291C51.6069 70.642 51.3465 72.8605 50.7073 74.983C50.0752 76.7595 49.0778 78.3838 47.7793 79.7511C46.4809 81.1185 44.9103 82.1984 43.1688 82.9214C40.8314 84.0085 38.2478 84.4573 35.6807 84.2222C33.1136 83.9871 30.6545 83.0765 28.5534 81.583C27.3066 80.7464 26.2093 79.7063 25.3073 78.5061C27.2776 79.5497 29.4633 80.1221 31.6923 80.1782C33.9214 80.2342 36.133 79.7724 38.1534 78.8291C39.8974 78.1103 41.4703 77.0317 42.7692 75.6638C44.0682 74.296 45.0641 72.6695 45.6919 70.8907C46.3442 68.8178 46.6255 66.646 46.5226 64.4753V0.736816H63.7688C63.6622 2.08465 63.7398 3.44072 63.9996 4.76759ZM87.6765 23.8137V27.3522C85.6543 26.9057 83.6883 26.2349 81.8149 25.3522C79.2248 24.0338 76.8659 22.3036 74.8303 20.2291C75.4697 20.6322 76.1324 20.9969 76.8149 21.3214C80.1794 23.0217 83.9073 23.8771 87.6765 23.8137Z"
            fill="#ADADAD" />
    </g>
    <defs>
        <clipPath id="clip0_74_27834">
            <rect width="92.3077" height="100" fill="white" transform="translate(0.368774 0.736816)" />
        </clipPath>
    </defs>
</svg>
    