<svg width="119" height="85" viewBox="0 0 119 85" fill="none" xmlns="http://www.w3.org/2000/svg">
    <path
        d="M17.85 36.5081C24.4136 36.5081 29.75 31.1717 29.75 24.6081C29.75 18.0445 24.4136 12.7081 17.85 12.7081C11.2864 12.7081 5.95 18.0445 5.95 24.6081C5.95 31.1717 11.2864 36.5081 17.85 36.5081ZM101.15 36.5081C107.714 36.5081 113.05 31.1717 113.05 24.6081C113.05 18.0445 107.714 12.7081 101.15 12.7081C94.5864 12.7081 89.25 18.0445 89.25 24.6081C89.25 31.1717 94.5864 36.5081 101.15 36.5081ZM107.1 42.4581H95.2C91.9275 42.4581 88.9711 43.7783 86.8142 45.9165C94.3075 50.0258 99.6253 57.4447 100.778 66.2581H113.05C116.341 66.2581 119 63.5992 119 60.3081V54.3581C119 47.7945 113.664 42.4581 107.1 42.4581ZM59.5 42.4581C71.0095 42.4581 80.325 33.1426 80.325 21.6331C80.325 10.1236 71.0095 0.808105 59.5 0.808105C47.9905 0.808105 38.675 10.1236 38.675 21.6331C38.675 33.1426 47.9905 42.4581 59.5 42.4581ZM73.78 48.4081H72.2367C68.3692 50.2675 64.0741 51.3831 59.5 51.3831C54.9259 51.3831 50.6494 50.2675 46.7633 48.4081H45.22C33.3944 48.4081 23.8 58.0025 23.8 69.8281V75.1831C23.8 80.1105 27.7977 84.1081 32.725 84.1081H86.275C91.2023 84.1081 95.2 80.1105 95.2 75.1831V69.8281C95.2 58.0025 85.6056 48.4081 73.78 48.4081ZM32.1858 45.9165C30.0289 43.7783 27.0725 42.4581 23.8 42.4581H11.9C5.33641 42.4581 0 47.7945 0 54.3581V60.3081C0 63.5992 2.65891 66.2581 5.95 66.2581H18.2033C19.3747 57.4447 24.6925 50.0258 32.1858 45.9165Z"
        fill="white" />
</svg>
    