<svg width="198" height="42" viewBox="0 0 198 42" fill="none" xmlns="http://www.w3.org/2000/svg">
    <g clip-path="url(#clip0_134_271)">
    <g clip-path="url(#clip1_134_271)">
    <path d="M73.4312 6.52985H74.9488L78.5174 13.4297H78.6404L82.2089 6.52985H83.7266V14.8422H82.5371V8.52675H82.4345L79.1531 14.8422H78.0046L74.7233 8.52675H74.6207V14.8422H73.4312V6.52985Z" fill="white"/>
    <path d="M86.5648 14.8422V6.52985H92.902V7.42277H87.8363V10.2314H92.5738V11.1243H87.8363V13.9493H92.984V14.8422H86.5648Z" fill="white"/>
    <path d="M94.9083 7.42277V6.52985H102.784V7.42277H99.4819V14.8422H98.2103V7.42277H94.9083Z" fill="white"/>
    <path d="M104.239 14.8422H102.906L106.761 6.52985H108.074L111.93 14.8422H110.597L107.459 7.84488H107.377L104.239 14.8422ZM104.731 11.5952H110.104V12.4881H104.731V11.5952Z" fill="white"/>
    <path d="M117.094 14.8422H113.854V6.52985H117.238C118.256 6.52985 119.128 6.69626 119.853 7.02908C120.577 7.35919 121.133 7.83406 121.519 8.4537C121.905 9.07063 122.098 9.8093 122.098 10.6698C122.098 11.5356 121.903 12.2811 121.514 12.9061C121.124 13.5285 120.557 14.0074 119.812 14.3429C119.067 14.6757 118.161 14.8422 117.094 14.8422ZM115.125 13.9493H117.012C117.881 13.9493 118.6 13.8166 119.171 13.5515C119.741 13.2863 120.168 12.9089 120.447 12.4191C120.727 11.9294 120.868 11.3462 120.868 10.6698C120.868 9.99871 120.729 9.42103 120.452 8.93669C120.175 8.44964 119.762 8.07623 119.212 7.81647C118.661 7.554 117.976 7.42277 117.155 7.42277H115.125V13.9493Z" fill="white"/>
    <path d="M124.457 14.8422H123.124L126.98 6.52985H128.292L132.148 14.8422H130.815L127.677 7.84488H127.595L124.457 14.8422ZM124.95 11.5952H130.323V12.4881H124.95V11.5952Z" fill="white"/>
    <path d="M132.271 7.42277V6.52985H140.146V7.42277H136.844V14.8422H135.573V7.42277H132.271Z" fill="white"/>
    <path d="M141.602 14.8422H140.269L144.125 6.52985H145.437L149.292 14.8422H147.959L144.822 7.84488H144.739L141.602 14.8422ZM142.094 11.5952H147.468V12.4881H142.094V11.5952Z" fill="white"/>
    <path d="M74.4537 23.273C74.3922 22.8741 74.1427 22.5645 73.7051 22.3441C73.2676 22.1237 72.7309 22.0135 72.0951 22.0135C71.6302 22.0135 71.2235 22.0712 70.8748 22.1867C70.5296 22.3021 70.2595 22.4609 70.0646 22.6629C69.8732 22.865 69.7776 23.0945 69.7776 23.3517C69.7776 23.5668 69.8442 23.7518 69.9776 23.9066C70.1143 24.0588 70.2885 24.186 70.5005 24.2884C70.7124 24.3881 70.9347 24.4707 71.167 24.5363C71.3995 24.5993 71.6132 24.6505 71.808 24.6899L72.8745 24.9103C73.1479 24.9653 73.4522 25.0414 73.7871 25.1385C74.1255 25.2356 74.4486 25.368 74.7562 25.5361C75.0673 25.7013 75.3237 25.9138 75.5253 26.1736C75.727 26.4334 75.8278 26.7522 75.8278 27.13C75.8278 27.5655 75.6791 27.9591 75.3818 28.3108C75.0878 28.6623 74.6571 28.9417 74.0896 29.149C73.5256 29.3563 72.8403 29.4599 72.0336 29.4599C71.2816 29.4599 70.6304 29.3668 70.0801 29.1805C69.5332 28.9942 69.1025 28.7344 68.788 28.4013C68.4769 28.068 68.3009 27.681 68.2599 27.2402H69.5725C69.6066 27.5446 69.7399 27.7965 69.9724 27.9959C70.2083 28.1927 70.5056 28.3396 70.8646 28.4366C71.2269 28.5311 71.6166 28.5784 72.0336 28.5784C72.519 28.5784 72.9548 28.5181 73.341 28.3973C73.7274 28.274 74.0333 28.1035 74.2588 27.8857C74.4845 27.6652 74.5973 27.4082 74.5973 27.1143C74.5973 26.8466 74.4999 26.6288 74.305 26.4609C74.1102 26.293 73.8538 26.1566 73.536 26.0516C73.2181 25.9466 72.8745 25.8548 72.5053 25.7761L71.2132 25.4928C70.3929 25.3117 69.7433 25.0532 69.2648 24.7174C68.7862 24.3815 68.547 23.942 68.547 23.3989C68.547 22.9476 68.706 22.5541 69.0239 22.2181C69.3452 21.8797 69.7758 21.6173 70.3159 21.431C70.8594 21.2421 71.4661 21.1476 72.1361 21.1476C72.813 21.1476 73.4145 21.2408 73.9409 21.4271C74.4674 21.6107 74.8844 21.8627 75.192 22.1828C75.5031 22.5028 75.6672 22.8662 75.6843 23.273H74.4537Z" fill="#F9F9F9"/>
    <path d="M87.0674 25.2881C87.0674 26.1382 86.8674 26.8729 86.4675 27.4921C86.0675 28.1113 85.5189 28.5888 84.8215 28.9247C84.1242 29.2605 83.3278 29.4285 82.4323 29.4285C81.5367 29.4285 80.7402 29.2605 80.0429 28.9247C79.3455 28.5888 78.7969 28.1113 78.397 27.4921C77.997 26.8729 77.7971 26.1382 77.7971 25.2881C77.7971 24.4379 77.997 23.7032 78.397 23.0841C78.7969 22.4648 79.3455 21.9873 80.0429 21.6514C80.7402 21.3156 81.5367 21.1476 82.4323 21.1476C83.3278 21.1476 84.1242 21.3156 84.8215 21.6514C85.5189 21.9873 86.0675 22.4648 86.4675 23.0841C86.8674 23.7032 87.0674 24.4379 87.0674 25.2881ZM85.8368 25.2881C85.8368 24.5901 85.6846 24.001 85.3805 23.5209C85.0797 23.0408 84.6712 22.6773 84.155 22.4307C83.6423 22.184 83.068 22.0608 82.4323 22.0608C81.7965 22.0608 81.2204 22.184 80.7043 22.4307C80.1916 22.6773 79.7831 23.0408 79.4788 23.5209C79.1781 24.001 79.0276 24.5901 79.0276 25.2881C79.0276 25.986 79.1781 26.5751 79.4788 27.0552C79.7831 27.5354 80.1916 27.8988 80.7043 28.1454C81.2204 28.3921 81.7965 28.5154 82.4323 28.5154C83.068 28.5154 83.6423 28.3921 84.155 28.1454C84.6712 27.8988 85.0797 27.5354 85.3805 27.0552C85.6846 26.5751 85.8368 25.986 85.8368 25.2881Z" fill="#F9F9F9"/>
    <path d="M89.4943 29.3183V21.2579H90.7658V28.4524H95.6471V29.3183H89.4943Z" fill="#F9F9F9"/>
    <path d="M104.795 21.2579H106.067V26.5947C106.067 27.1457 105.898 27.6377 105.56 28.0706C105.224 28.5009 104.752 28.8408 104.139 29.09C103.528 29.3367 102.81 29.4599 101.986 29.4599C101.162 29.4599 100.444 29.3367 99.8329 29.09C99.2206 28.8408 98.7457 28.5009 98.4073 28.0706C98.0718 27.6377 97.9051 27.1457 97.9051 26.5947V21.2579H99.1767V26.516C99.1767 26.9096 99.2888 27.2599 99.515 27.5669C99.7403 27.8712 100.062 28.1113 100.478 28.2871C100.899 28.4603 101.402 28.5469 101.986 28.5469C102.57 28.5469 103.073 28.4603 103.494 28.2871C103.914 28.1113 104.236 27.8712 104.457 27.5669C104.683 27.2599 104.795 26.9096 104.795 26.516V21.2579Z" fill="#F9F9F9"/>
    <path d="M108.322 22.1237V21.2579H116.197V22.1237H112.895V29.3183H111.623V22.1237H108.322Z" fill="#F9F9F9"/>
    <path d="M119.72 21.2579V29.3183H118.448V21.2579H119.72Z" fill="#F9F9F9"/>
    <path d="M131.418 25.2881C131.418 26.1382 131.218 26.8729 130.818 27.4921C130.418 28.1113 129.87 28.5888 129.172 28.9247C128.475 29.2605 127.679 29.4285 126.783 29.4285C125.888 29.4285 125.091 29.2605 124.394 28.9247C123.697 28.5888 123.148 28.1113 122.748 27.4921C122.348 26.8729 122.148 26.1382 122.148 25.2881C122.148 24.4379 122.348 23.7032 122.748 23.0841C123.148 22.4648 123.697 21.9873 124.394 21.6514C125.091 21.3156 125.888 21.1476 126.783 21.1476C127.679 21.1476 128.475 21.3156 129.172 21.6514C129.87 21.9873 130.418 22.4648 130.818 23.0841C131.218 23.7032 131.418 24.4379 131.418 25.2881ZM130.188 25.2881C130.188 24.5901 130.036 24.001 129.732 23.5209C129.43 23.0408 129.022 22.6773 128.506 22.4307C127.993 22.184 127.419 22.0608 126.783 22.0608C126.147 22.0608 125.572 22.184 125.055 22.4307C124.542 22.6773 124.134 23.0408 123.83 23.5209C123.529 24.001 123.379 24.5901 123.379 25.2881C123.379 25.986 123.529 26.5751 123.83 27.0552C124.134 27.5354 124.542 27.8988 125.055 28.1454C125.572 28.3921 126.147 28.5154 126.783 28.5154C127.419 28.5154 127.993 28.3921 128.506 28.1454C129.022 27.8988 129.43 27.5354 129.732 27.0552C130.036 26.5751 130.188 25.986 130.188 25.2881Z" fill="#F9F9F9"/>
    <path d="M142.172 21.2579V29.3183H140.941L135.219 22.9895H135.116V29.3183H133.845V21.2579H135.076L140.818 27.6023H140.921V21.2579H142.172Z" fill="#F9F9F9"/>
    <path d="M150.748 23.273C150.687 22.8741 150.437 22.5645 149.999 22.3441C149.561 22.1237 149.025 22.0135 148.389 22.0135C147.924 22.0135 147.517 22.0712 147.169 22.1867C146.824 22.3021 146.554 22.4609 146.359 22.6629C146.168 22.865 146.071 23.0945 146.071 23.3517C146.071 23.5668 146.139 23.7518 146.272 23.9066C146.409 24.0588 146.583 24.186 146.795 24.2884C147.006 24.3881 147.229 24.4707 147.461 24.5363C147.694 24.5993 147.907 24.6505 148.102 24.6899L149.168 24.9103C149.442 24.9653 149.747 25.0414 150.081 25.1385C150.419 25.2356 150.743 25.368 151.05 25.5361C151.361 25.7013 151.618 25.9138 151.82 26.1736C152.022 26.4334 152.122 26.7522 152.122 27.13C152.122 27.5655 151.974 27.9591 151.676 28.3108C151.382 28.6623 150.951 28.9417 150.384 29.149C149.82 29.3563 149.134 29.4599 148.328 29.4599C147.576 29.4599 146.924 29.3668 146.374 29.1805C145.827 28.9942 145.396 28.7344 145.082 28.4013C144.771 28.068 144.595 27.681 144.554 27.2402H145.866C145.901 27.5446 146.034 27.7965 146.266 27.9959C146.502 28.1927 146.8 28.3396 147.158 28.4366C147.521 28.5311 147.91 28.5784 148.328 28.5784C148.813 28.5784 149.249 28.5181 149.635 28.3973C150.022 28.274 150.328 28.1035 150.553 27.8857C150.778 27.6652 150.891 27.4082 150.891 27.1143C150.891 26.8466 150.794 26.6288 150.599 26.4609C150.405 26.293 150.148 26.1566 149.83 26.0516C149.512 25.9466 149.168 25.8548 148.8 25.7761L147.508 25.4928C146.687 25.3117 146.037 25.0532 145.559 24.7174C145.08 24.3815 144.842 23.942 144.842 23.3989C144.842 22.9476 145.001 22.5541 145.318 22.2181C145.639 21.8797 146.07 21.6173 146.61 21.431C147.154 21.2421 147.76 21.1476 148.43 21.1476C149.107 21.1476 149.708 21.2408 150.235 21.4271C150.762 21.6107 151.179 21.8627 151.486 22.1828C151.797 22.5028 151.961 22.8662 151.979 23.273H150.748Z" fill="#F9F9F9"/>
    <path fill-rule="evenodd" clip-rule="evenodd" d="M17.3897 10.9952C12.6719 15.967 8.80356 20.4755 8.79381 21.013C8.77431 22.0705 22.4497 35.3498 26.1513 37.8685C28.3571 39.3687 28.6174 39.2035 36.7014 31.1873C47.5284 20.4511 47.5323 20.4432 43.7906 16.1722C42.1202 14.2654 40.167 12.7056 39.4493 12.7056C36.8915 12.7056 36.8554 14.9046 39.3723 17.4271L41.9301 19.9907L34.9334 27.0501L27.9368 34.1105L21.5252 28.1301C17.9991 24.8413 14.9528 21.7382 14.7558 21.2339C14.5579 20.7306 17.3829 17.3011 21.0348 13.6135C26.1367 8.45994 27.968 7.15517 28.9509 7.97224C29.8822 8.7463 30.636 8.69743 31.7242 7.79143C33.0504 6.68897 32.9754 6.28728 31.067 4.25146C29.8832 2.98774 28.2518 1.95468 27.4414 1.95468C26.6311 1.95468 22.1084 6.02242 17.3897 10.9952ZM31.9154 10.5261C27.2337 15.2398 23.4034 19.7718 23.4034 20.5967C23.4034 21.4206 24.9431 23.5913 26.8251 25.4199C30.0675 28.5699 30.3356 28.6559 31.9329 27.055C33.5292 25.4541 33.4649 25.242 30.7042 23L27.7915 20.6338L34.7716 13.591L41.7516 6.54921L48.6585 12.8033C52.4567 16.2436 55.5606 19.2782 55.5557 19.547C55.5508 19.8158 52.6907 23.1026 49.1988 26.8498C43.619 32.839 42.6263 33.5251 41.0105 32.5135C39.5478 31.5987 38.9276 31.6574 37.9788 32.8038C37.0202 33.961 37.1294 34.6236 38.5346 36.1806C41.7029 39.6893 44.0373 38.5937 53.034 29.3792C60.211 22.0285 61.4114 20.3533 60.5962 18.8267C58.879 15.6102 43.9613 1.95468 42.1651 1.95468C41.2094 1.95468 36.597 5.81131 31.9154 10.5261Z" fill="white"/>
    </g>
    </g>
    <defs>
    <clipPath id="clip0_134_271">
    <rect width="198" height="41.0488" fill="white"/>
    </clipPath>
    <clipPath id="clip1_134_271">
    <rect width="152.122" height="41.0488" fill="white"/>
    </clipPath>
    </defs>
    </svg>
    